<?xml version="1.0" standalone="no"?>
<!DOCTYPE svg PUBLIC "-//W3C//DTD SVG 20010904//EN"
 "http://www.w3.org/TR/2001/REC-SVG-20010904/DTD/svg10.dtd">
<svg version="1.0" xmlns="http://www.w3.org/2000/svg"
 width="299.000000pt" height="69.000000pt" viewBox="0 0 299.000000 69.000000"
 preserveAspectRatio="xMidYMid meet">

<g transform="translate(0.000000,69.000000) scale(0.100000,-0.100000)"
fill="#000000" stroke="none">
<path d="M1348 583 c-11 -12 -13 -25 -8 -38 5 -11 9 -44 9 -73 1 -35 5 -51 12
-47 6 4 9 29 8 56 -2 27 0 52 4 55 4 4 2 13 -5 21 -8 10 -8 17 -1 24 14 14 41
5 78 -26 25 -22 26 -25 8 -20 -25 7 -40 -10 -17 -19 11 -4 14 -14 11 -27 -3
-13 -1 -19 6 -16 7 2 13 16 15 30 2 20 9 27 25 28 17 1 18 2 5 6 -10 2 -18 10
-18 16 0 13 -74 47 -101 47 -9 0 -23 -8 -31 -17z"/>
<path d="M2267 585 c-9 -8 -13 -24 -10 -35 3 -12 0 -20 -8 -20 -8 0 -6 -5 6
-14 11 -8 16 -19 12 -30 -4 -9 -2 -16 4 -16 14 0 22 27 13 48 -23 52 -7 87 27
56 24 -21 24 -31 2 -37 -17 -4 -17 -5 0 -6 14 -1 17 -11 17 -57 0 -36 4 -53
11 -49 6 4 9 28 8 54 -1 26 1 52 4 58 8 13 -40 63 -60 63 -6 0 -18 -7 -26 -15z"/>
<path d="M1286 525 c-3 -8 -1 -15 5 -15 6 0 17 7 25 15 14 13 13 15 -4 15 -11
0 -22 -7 -26 -15z"/>
<path d="M1535 520 c5 -15 0 -21 -19 -26 -31 -7 -33 -24 -8 -47 22 -20 48 -22
58 -5 5 7 2 9 -8 5 -9 -3 -23 2 -33 13 -17 19 -16 20 9 29 29 12 37 51 10 51
-11 0 -14 -6 -9 -20z"/>
<path d="M1582 534 c3 -3 2 -21 -2 -41 -9 -37 -4 -63 11 -63 5 0 9 23 9 50 0
38 4 50 15 50 12 0 15 -13 15 -56 0 -34 4 -53 10 -49 6 3 10 28 10 55 0 29 5
50 13 53 6 3 -10 6 -37 6 -27 1 -47 -1 -44 -5z"/>
<path d="M1679 513 c-8 -22 -6 -32 9 -52 10 -14 25 -27 32 -29 10 -4 9 0 -3
12 -19 20 -22 48 -7 77 9 15 7 19 -5 19 -8 0 -20 -12 -26 -27z"/>
<path d="M1749 540 c-1 -3 -2 -27 -3 -53 -1 -41 0 -46 11 -31 7 10 13 25 12
33 0 18 -17 59 -20 51z"/>
<path d="M1785 534 c6 -2 8 -26 7 -54 -5 -59 14 -69 23 -12 3 20 8 45 10 55 2
13 -3 17 -23 16 -15 0 -22 -2 -17 -5z"/>
<path d="M1841 485 c-3 -72 16 -72 21 0 2 35 -1 55 -8 55 -6 0 -12 -24 -13
-55z"/>
<path d="M1965 526 c-25 -18 -13 -50 16 -41 15 5 20 3 17 -6 -3 -8 -17 -15
-31 -17 -15 -2 -27 -7 -27 -11 0 -11 70 -34 78 -26 4 4 1 10 -5 12 -15 5 -17
33 -3 33 17 0 24 51 9 61 -20 12 -32 11 -54 -5z m43 -20 c3 -15 1 -16 -17 -6
-12 6 -19 16 -15 21 9 15 28 5 32 -15z"/>
<path d="M2045 534 c6 -2 8 -26 7 -54 -3 -32 0 -50 7 -50 7 0 11 20 11 49 0
39 4 51 18 54 9 3 1 5 -18 5 -19 0 -30 -1 -25 -4z"/>
<path d="M2156 525 c-3 -8 -1 -15 5 -15 6 0 17 7 25 15 14 13 13 15 -4 15 -11
0 -22 -7 -26 -15z"/>
<path d="M1233 500 c3 -11 1 -23 -4 -26 -16 -10 -9 -43 12 -54 11 -6 30 -9 42
-7 22 4 22 4 1 6 -12 0 -27 8 -34 16 -10 13 -10 19 5 35 12 13 14 20 5 20 -7
0 -10 7 -6 15 3 9 0 15 -10 15 -11 0 -15 -6 -11 -20z"/>
<path d="M2103 500 c3 -11 1 -23 -4 -26 -16 -10 -9 -43 12 -54 11 -6 30 -9 42
-7 22 4 22 4 1 6 -12 0 -27 8 -34 16 -10 13 -10 19 5 35 12 13 14 20 5 20 -7
0 -10 7 -6 15 3 9 0 15 -10 15 -11 0 -15 -6 -11 -20z"/>
<path d="M1303 464 c0 -23 1 -24 14 -11 9 8 12 20 9 26 -12 19 -23 12 -23 -15z"/>
<path d="M2174 470 c0 -20 7 -25 19 -14 7 7 -2 34 -12 34 -4 0 -7 -9 -7 -20z"/>
<path d="M1401 454 c16 -20 65 -45 72 -37 9 8 -48 53 -68 53 -15 0 -15 -2 -4
-16z"/>
<path d="M2220 460 c0 -13 61 -51 72 -44 9 6 -45 54 -61 54 -6 0 -11 -5 -11
-10z"/>
<path d="M553 421 c-5 -3 -8 -21 -7 -38 1 -18 2 -67 3 -108 1 -75 1 -75 29
-75 16 0 32 8 40 20 16 26 58 26 72 0 7 -13 21 -20 40 -20 l30 0 0 110 0 110
-29 0 c-24 0 -31 -5 -36 -29 -8 -35 -37 -64 -57 -56 -16 6 -38 46 -38 69 0 15
-33 27 -47 17z"/>
<path d="M1238 329 c-18 -10 -24 -40 -11 -53 4 -3 6 -28 4 -55 -1 -27 2 -52 8
-56 12 -7 13 -1 12 68 0 42 3 48 17 43 15 -5 15 -5 0 8 -10 7 -18 18 -18 24 0
23 23 23 60 -2 45 -30 50 -31 50 -13 0 12 -69 47 -93 47 -6 0 -20 -5 -29 -11z"/>
<path d="M2018 329 c-18 -10 -24 -40 -11 -52 4 -4 5 -33 4 -65 -2 -40 1 -54 8
-47 6 6 11 46 12 88 1 42 5 77 11 77 37 0 98 -56 98 -90 0 -33 -33 -65 -56
-56 -16 6 -16 8 0 25 9 9 14 20 11 23 -3 3 1 11 10 18 17 14 20 30 6 30 -5 0
-13 -9 -16 -21 -5 -15 -10 -18 -18 -10 -7 7 -6 15 4 27 12 16 12 17 -4 11 -10
-4 -21 -7 -23 -7 -10 0 -2 -29 11 -40 14 -12 14 -15 -2 -32 -15 -17 -15 -20
-1 -34 16 -17 58 -11 58 7 0 5 5 9 10 9 6 0 10 -8 10 -17 0 -12 3 -14 11 -6 6
6 10 32 8 57 -2 25 0 48 6 50 5 3 2 5 -7 5 -10 1 -18 7 -18 14 0 12 -69 47
-93 47 -6 0 -20 -5 -29 -11z"/>
<path d="M1368 267 c-6 -13 -14 -16 -32 -11 -17 4 -30 0 -45 -15 -25 -25 -27
-44 -5 -65 19 -20 28 -20 44 -1 17 20 30 19 30 -2 0 -12 3 -14 11 -6 5 5 9 34
7 64 -2 35 -6 48 -10 36z m-32 -32 c12 -11 12 -19 4 -35 -13 -24 -35 -26 -44
-4 -6 15 9 54 20 54 3 0 12 -7 20 -15z"/>
<path d="M1493 273 c9 -2 23 -2 30 0 6 3 -1 5 -18 5 -16 0 -22 -2 -12 -5z"/>
<path d="M1596 264 c-10 -25 -7 -94 4 -94 6 0 10 22 10 49 0 39 4 51 18 54 13
4 12 5 -4 6 -12 0 -25 -6 -28 -15z"/>
<path d="M1673 273 c-10 -3 -9 -9 3 -20 8 -9 13 -22 10 -30 -4 -9 -1 -13 6
-11 18 6 22 43 6 55 -7 6 -19 8 -25 6z"/>
<path d="M1738 249 c-10 -16 -13 -27 -8 -24 6 4 10 -9 10 -29 0 -20 5 -36 10
-36 6 0 10 27 10 60 0 33 -1 60 -2 60 -2 0 -11 -14 -20 -31z"/>
<path d="M1853 273 c-15 -6 -17 -69 -3 -78 16 -10 11 -22 -12 -30 -15 -4 -18
-8 -10 -12 16 -6 72 16 72 28 0 5 -6 9 -14 9 -20 0 -28 32 -17 64 10 26 8 29
-16 19z"/>
<path d="M1906 237 c3 -74 4 -78 14 -72 6 3 10 28 10 55 0 38 4 50 18 53 9 3
4 5 -13 6 -29 1 -30 0 -29 -42z"/>
<path d="M2273 273 c9 -2 25 -2 35 0 9 3 1 5 -18 5 -19 0 -27 -2 -17 -5z"/>
<path d="M2343 273 c9 -2 23 -2 30 0 6 3 -1 5 -18 5 -16 0 -22 -2 -12 -5z"/>
<path d="M2406 271 c-3 -5 1 -14 10 -21 8 -7 12 -20 9 -29 -5 -14 -4 -14 10 0
14 13 15 21 6 38 -12 22 -26 27 -35 12z"/>
<path d="M2482 268 c-37 -37 12 -113 57 -88 16 8 21 21 21 50 0 21 -4 41 -9
45 -17 10 -22 -13 -9 -40 10 -22 9 -28 -6 -43 -16 -16 -18 -16 -32 3 -14 19
-14 30 1 68 8 20 -5 23 -23 5z"/>
<path d="M2583 273 c9 -2 25 -2 35 0 9 3 1 5 -18 5 -19 0 -27 -2 -17 -5z"/>
<path d="M1413 234 c-29 -45 18 -85 58 -48 17 16 19 16 19 1 0 -10 4 -17 9
-17 12 0 20 33 14 62 -4 21 -11 25 -44 26 -31 2 -42 -3 -56 -24z m47 6 c0 -5
8 -6 18 -3 16 7 16 5 1 -17 -9 -14 -24 -26 -33 -28 -21 -4 -32 24 -16 43 14
17 30 20 30 5z"/>
<path d="M1960 215 c0 -25 5 -45 10 -45 6 0 10 20 10 45 0 25 -4 45 -10 45 -5
0 -10 -20 -10 -45z"/>
<path d="M2196 241 c-20 -22 -20 -45 0 -62 13 -11 19 -10 37 0 15 10 22 11 25
2 7 -20 30 -11 34 14 3 14 2 25 -2 25 -5 0 -6 8 -3 19 4 16 -1 19 -35 19 -26
1 -46 -5 -56 -17z m39 -1 c4 -6 11 -8 16 -5 13 9 11 -19 -3 -33 -21 -21 -48
-14 -48 11 0 34 21 50 35 27z"/>
<path d="M2590 209 c0 -31 4 -48 10 -44 6 3 10 26 10 51 0 24 -4 44 -10 44 -5
0 -10 -23 -10 -51z"/>
<path d="M1525 230 c-3 -5 -2 -10 3 -10 5 0 12 -13 16 -30 3 -16 10 -30 17
-30 10 0 4 52 -8 73 -6 10 -21 9 -28 -3z"/>
<path d="M2300 231 c0 -6 5 -13 10 -16 6 -3 10 -15 10 -25 0 -19 17 -36 27
-27 10 10 -19 77 -33 77 -8 0 -14 -4 -14 -9z"/>
<path d="M1630 202 c0 -12 60 -45 68 -37 4 4 -4 15 -17 26 -24 19 -51 25 -51
11z"/>
<path d="M2370 201 c0 -12 62 -51 72 -45 10 6 -45 54 -61 54 -6 0 -11 -4 -11
-9z"/>
<path d="M429 178 c0 -2 -1 -22 -3 -45 -2 -39 0 -43 21 -43 16 0 23 6 23 20 0
11 5 20 10 20 6 0 10 -9 10 -20 0 -13 7 -20 20 -20 15 0 20 7 20 29 0 16 3 36
6 45 5 12 0 16 -20 16 -19 0 -26 -5 -26 -20 0 -11 -4 -20 -10 -20 -5 0 -10 9
-10 20 0 13 -7 20 -20 20 -11 0 -20 -1 -21 -2z"/>
<path d="M553 164 c-4 -11 3 -24 18 -36 24 -19 24 -19 2 -13 -17 5 -23 2 -23
-9 0 -20 53 -22 69 -2 9 11 8 18 -4 30 -9 9 -21 16 -26 16 -5 0 -9 5 -9 10 0
7 6 7 20 0 16 -9 20 -8 20 5 0 21 -59 20 -67 -1z"/>
<path d="M640 170 c0 -21 34 -80 47 -80 10 0 53 67 53 85 0 3 -9 5 -21 5 -15
0 -19 -5 -15 -17 8 -24 -9 -51 -17 -29 -4 9 -4 23 -1 31 5 11 -1 15 -20 15
-14 0 -26 -4 -26 -10z"/>
<path d="M755 135 c0 -40 2 -45 23 -45 16 0 22 5 20 18 -2 12 5 18 22 21 59 8
40 51 -24 51 l-41 0 0 -45z m65 15 c0 -5 -7 -10 -15 -10 -8 0 -15 5 -15 10 0
6 7 10 15 10 8 0 15 -4 15 -10z"/>
</g>
</svg>
