<?xml version="1.0" standalone="no"?>
<!DOCTYPE svg PUBLIC "-//W3C//DTD SVG 20010904//EN"
 "http://www.w3.org/TR/2001/REC-SVG-20010904/DTD/svg10.dtd">
<svg version="1.0" xmlns="http://www.w3.org/2000/svg"
 width="600.000000pt" height="348.000000pt" viewBox="0 0 600.000000 348.000000"
 preserveAspectRatio="xMidYMid meet">

<g transform="translate(0.000000,348.000000) scale(0.100000,-0.100000)"
fill="#000000" stroke="none">
<path d="M1245 2664 c-39 -10 -100 -60 -123 -102 -26 -47 -43 -144 -68 -389
-18 -174 -27 -678 -14 -783 4 -36 11 -100 15 -143 4 -43 8 -88 10 -100 2 -12
6 -44 10 -72 8 -68 52 -295 71 -375 57 -235 88 -299 164 -338 94 -48 185 -20
505 155 249 136 587 346 730 452 334 249 394 296 557 434 104 88 135 169 104
264 -19 57 -47 86 -166 170 -376 267 -847 519 -1280 685 -306 117 -451 157
-515 142z m998 -441 c41 -17 102 -81 110 -116 2 -12 14 -65 26 -117 61 -265
75 -703 30 -943 -19 -105 -99 -176 -201 -179 -42 -1 -82 9 -193 51 -77 29
-185 75 -240 101 -88 43 -96 48 -66 49 80 2 498 263 659 412 52 49 57 91 15
130 -29 27 -127 91 -228 151 -138 82 -421 198 -486 200 -40 1 -69 -29 -81 -83
-17 -80 -19 -435 -3 -539 18 -114 51 -228 73 -254 18 -21 -161 71 -256 131
-140 89 -188 122 -208 144 -58 64 -71 152 -36 232 22 49 69 91 253 228 194
145 343 240 573 364 125 68 167 74 259 38z"/>
<path d="M4544 2421 c-53 -24 -97 -79 -120 -149 -28 -86 -25 -286 5 -364 47
-122 155 -171 308 -138 76 17 75 16 62 99 -8 49 -16 70 -24 67 -28 -10 -106
-18 -130 -12 -13 3 -31 19 -38 34 -34 65 -27 253 10 294 15 17 26 19 73 15 30
-4 64 -9 76 -12 19 -6 21 0 32 70 7 42 10 81 7 86 -20 32 -197 39 -261 10z"/>
<path d="M3500 2100 l0 -330 170 0 170 0 0 44 c0 24 3 58 6 75 l7 31 -87 0
-86 0 0 255 0 255 -90 0 -90 0 0 -330z"/>
<path d="M3970 2424 c0 -8 -108 -598 -115 -631 -5 -22 -3 -23 79 -23 l85 0 6
43 c10 65 14 68 81 65 l59 -3 9 -40 c4 -22 10 -46 12 -52 4 -15 174 -19 174
-5 0 10 -107 598 -115 630 -5 21 -9 22 -140 22 -74 0 -135 -3 -135 -6z m163
-331 l14 -93 -44 0 c-43 0 -44 1 -39 28 3 15 10 59 16 97 6 39 14 81 17 95 6
25 6 25 14 -5 4 -16 14 -72 22 -122z"/>
<path d="M5610 1346 c0 -181 4 -294 11 -315 14 -41 54 -61 122 -61 l54 0 6 65
c5 57 4 68 -13 85 -15 15 -20 33 -19 72 1 29 1 140 0 246 l-1 192 -80 0 -80 0
0 -284z"/>
<path d="M3590 1295 l0 -315 85 0 85 0 0 104 0 104 74 4 c86 4 120 22 149 81
45 89 27 240 -33 291 -44 37 -90 46 -232 46 l-128 0 0 -315z m225 161 c28 -20
28 -122 1 -142 -11 -8 -28 -14 -38 -14 -16 0 -18 10 -18 85 0 75 2 85 18 85
10 0 27 -6 37 -14z"/>
<path d="M4887 1543 c-4 -3 -7 -24 -7 -45 0 -36 -2 -38 -30 -38 l-30 0 0 -65
c0 -62 1 -65 24 -65 l25 0 3 -156 3 -156 28 -24 c25 -21 38 -24 112 -24 46 0
86 3 88 8 3 4 7 34 8 67 l4 60 -40 5 -40 5 0 105 0 105 40 5 40 5 3 63 3 62
-46 0 -45 0 0 45 0 45 -68 0 c-38 0 -72 -3 -75 -7z"/>
<path d="M4186 1469 c-86 -21 -131 -85 -142 -204 -11 -121 21 -218 88 -268 20
-15 47 -21 105 -24 149 -8 211 53 221 217 8 142 -24 227 -98 265 -37 19 -125
26 -174 14z m102 -244 c2 -95 0 -111 -15 -122 -22 -17 -28 -16 -47 3 -12 12
-16 37 -16 105 0 106 10 132 48 127 l27 -3 3 -110z"/>
<path d="M4737 1470 c-16 -5 -35 -15 -44 -22 -13 -10 -17 -10 -20 0 -3 8 -28
12 -79 12 l-74 0 0 -240 0 -240 85 0 85 0 0 160 0 160 26 10 c14 6 39 10 55
10 l29 0 0 80 c0 87 -1 88 -63 70z"/>
<path d="M5320 1475 c-8 -2 -48 -9 -87 -15 -60 -10 -73 -15 -73 -30 0 -18 20
-122 24 -127 1 -2 34 4 73 12 81 17 103 13 103 -20 0 -19 -7 -24 -47 -30 -126
-18 -168 -64 -161 -173 4 -58 8 -68 36 -93 43 -38 112 -40 164 -5 l34 23 28
-23 c21 -19 39 -24 81 -24 l54 0 7 56 c6 52 5 58 -16 74 -23 17 -23 21 -17
141 7 138 -2 180 -43 211 -24 17 -124 32 -160 23z m48 -337 c-3 -40 -5 -43
-33 -43 -27 0 -30 3 -30 30 0 21 7 33 25 42 38 19 41 16 38 -29z"/>
</g>
</svg>
